<?xml version="1.0" standalone="no"?>
<!DOCTYPE svg PUBLIC "-//W3C//DTD SVG 20010904//EN"
 "http://www.w3.org/TR/2001/REC-SVG-20010904/DTD/svg10.dtd">
<svg version="1.0" xmlns="http://www.w3.org/2000/svg"
 width="256.000000pt" height="216.000000pt" viewBox="0 0 256.000000 216.000000"
 preserveAspectRatio="xMidYMid meet">

<g transform="translate(0.000000,216.000000) scale(0.100000,-0.100000)"
fill="#000000" stroke="none">
<path d="M1335 1319 c-16 -5 -77 -10 -135 -10 -58 -1 -110 -5 -117 -11 -11 -9
-105 -39 -130 -40 -7 -1 -9 -6 -6 -11 4 -6 -8 -7 -32 -3 -28 6 -35 4 -29 -5 5
-9 0 -10 -20 -5 -20 5 -26 4 -20 -5 5 -9 1 -10 -14 -7 -28 8 -30 -18 -3 -27
37 -12 273 19 403 53 28 7 52 5 103 -9 37 -10 83 -20 103 -23 20 -2 52 -7 70
-11 26 -6 32 -4 32 9 0 11 10 16 33 17 30 2 30 2 5 6 -16 2 -28 8 -28 13 0 4
10 6 23 4 12 -2 -7 6 -43 17 -36 12 -66 25 -68 30 -2 5 -17 9 -33 9 -16 0 -29
5 -29 10 0 12 -24 12 -65 -1z m-420 -99 c4 -6 -6 -10 -22 -10 -22 0 -25 2 -13
10 19 12 27 12 35 0z"/>
<path d="M697 1199 c-12 -7 -17 -23 -17 -59 0 -65 26 -86 118 -96 66 -6 114
-25 161 -62 l23 -19 -27 -54 c-31 -60 -61 -143 -75 -206 -11 -49 2 -89 33 -99
31 -10 47 16 67 110 11 47 28 106 39 131 20 45 20 45 70 45 40 0 51 4 56 20
12 38 63 70 111 70 53 0 87 -20 104 -60 11 -26 17 -29 63 -32 48 -3 53 -5 74
-43 12 -22 29 -71 38 -110 23 -96 34 -123 55 -130 86 -27 81 124 -10 306 l-28
55 31 25 c49 40 67 46 139 52 40 3 79 12 94 22 25 16 26 20 20 73 -10 83 -37
94 -70 28 l-19 -39 -106 7 c-134 9 -292 32 -334 49 -27 12 -42 11 -102 -4 -84
-21 -192 -35 -336 -44 l-106 -7 -6 31 c-7 35 -35 54 -60 40z"/>
<path d="M560 1128 c0 -40 7 -50 44 -66 l29 -13 -7 43 c-8 49 -21 68 -47 68
-15 0 -19 -7 -19 -32z"/>
<path d="M1890 1101 c0 -22 4 -43 10 -46 14 -8 48 12 61 36 8 16 8 20 -1 14
-7 -4 -13 1 -17 14 -3 14 -13 21 -29 21 -21 0 -24 -5 -24 -39z"/>
<path d="M413 1063 c-3 -8 -2 -51 1 -96 23 -266 153 -487 376 -636 112 -75
211 -115 335 -136 216 -37 446 18 631 150 154 110 300 329 329 490 5 32 4 38
-6 28 -7 -7 -26 -13 -41 -13 -26 0 -32 -8 -76 -102 -135 -287 -370 -450 -667
-465 -225 -11 -403 59 -566 220 -123 122 -194 263 -220 438 -7 46 -19 90 -26
97 -7 7 -13 17 -13 22 0 15 -51 18 -57 3z"/>
<path d="M1212 924 c-48 -33 -17 -114 44 -114 31 0 74 37 74 65 0 28 -43 65
-74 65 -12 0 -32 -7 -44 -16z"/>
</g>
</svg>
